<svg version="1.1" xmlns="http://www.w3.org/2000/svg" width="512" height="512">
  <ellipse style="fill: rgb(248, 139, 88);" cx="255.84" cy="253.853" rx="251.066" ry="251.066"></ellipse>
  <path d="M 279.238 216.013 C 281.052 216.013 282.865 216.013 284.734 216.013 C 284.734 217.223 284.734 218.431 284.734 219.677 C 286.09 219.859 287.441 220.041 288.835 220.229 C 294.502 221.664 297.149 223.594 301.572 227.352 C 309.061 233.478 316.833 238.324 325.284 243.019 C 326.414 243.781 327.547 244.545 328.712 245.331 C 328.712 246.541 328.712 247.749 328.712 248.995 C 332.341 250.205 335.969 251.414 339.707 252.661 C 339.707 253.869 339.707 255.08 339.707 256.325 C 341.219 256.779 342.73 257.232 344.288 257.699 C 351.66 260.333 358.433 263.698 365.36 267.319 C 365.36 268.53 365.36 269.738 365.36 270.983 C 366.984 271.482 368.611 271.975 370.286 272.486 C 386.919 278.411 400.252 290.217 413.261 301.812 C 419.019 306.923 424.616 311.111 431.326 314.962 C 434.423 317.972 437.468 321.036 440.487 324.123 C 450.555 333.621 461.115 342.04 472.411 350.034 C 477.17 353.467 481.746 357.069 486.297 360.771 C 485.693 364.4 485.088 368.027 484.466 371.766 C 483.255 371.766 482.046 371.766 480.8 371.766 C 480.56 372.834 480.318 373.9 480.071 375.001 C 476.88 386.844 470.468 395.555 462.248 404.448 C 457.155 410.324 452.968 416.756 448.697 423.244 C 447.803 424.397 446.907 425.55 445.985 426.737 C 444.776 426.737 443.566 426.737 442.321 426.737 C 441.698 428.438 441.698 428.438 441.06 430.173 C 437.942 435.219 434.891 435.572 429.494 437.731 C 428.204 440.139 426.996 442.591 425.828 445.061 C 421.008 450.963 416.953 455.41 409.566 457.659 C 408.282 457.734 406.995 457.808 405.672 457.888 C 405.068 459.701 404.464 461.516 403.841 463.384 C 398.042 468.699 392.792 471.607 385.516 474.379 C 383.249 475.649 380.996 476.948 378.758 478.273 C 372.689 481.709 372.689 481.709 369.025 481.709 C 369.025 482.919 369.025 484.127 369.025 485.373 C 365.514 486.562 362.001 487.743 358.489 488.925 C 356.533 489.583 354.576 490.242 352.562 490.92 C 348.288 492.299 344.078 493.528 339.707 494.536 C 339.707 495.745 339.707 496.954 339.707 498.2 C 293.699 510.803 239.807 516.643 193.115 503.697 C 191.912 503.375 190.709 503.051 189.467 502.716 C 182.089 500.732 174.764 498.616 167.463 496.368 C 167.463 495.159 167.463 493.949 167.463 492.704 C 166.025 492.553 164.591 492.4 163.11 492.245 C 144.78 488.452 129.819 478.889 114.323 468.882 C 116.97 458.809 121.873 451.808 127.952 443.572 C 135.799 432.694 143.442 421.729 150.742 410.475 C 151.523 409.28 152.307 408.085 153.114 406.854 C 161.829 393.34 169.269 379.142 176.56 364.823 C 177.458 363.059 178.357 361.299 179.283 359.482 C 181.103 355.904 182.91 352.323 184.709 348.733 C 191.864 334.779 199.778 320.034 213.272 311.296 C 218.197 310.838 218.197 310.838 222.434 311.296 C 224.267 313.129 224.267 313.129 224.953 319.198 C 224.666 334.018 216.602 347.166 209.583 359.829 C 197.854 381.074 189.464 403.468 180.837 426.112 C 177.164 435.556 173.252 444.894 169.294 454.224 C 169.899 454.827 170.504 455.432 171.127 456.055 C 172.828 454.241 172.828 454.241 174.562 452.391 C 178.456 448.726 178.456 448.726 182.121 448.726 C 182.845 447.094 182.845 447.094 183.584 445.433 C 185.877 441.228 188.21 438.7 191.7 435.448 C 198.62 428.717 204.489 421.494 210.294 413.797 C 211.324 412.437 212.352 411.077 213.413 409.678 C 228.926 388.974 241.874 367.327 253.585 344.28 C 254.716 342.182 254.716 342.182 255.868 340.042 C 268.487 314.903 269.158 286.668 269.315 259.158 C 269.508 242.806 271.822 230.508 279.238 216.013 Z" fill="#2F3190" style=""></path>
  <path d="M 279.238 216.013 C 278.083 221.039 276.5 225.611 274.592 230.393 C 270.639 242.133 271.181 254.024 271.106 266.29 C 269.636 341.259 228.948 401.193 176.624 452.391 C 173.602 454.875 170.559 457.331 167.463 459.72 C 168.668 452.617 170.741 446.302 173.369 439.6 C 174.196 437.482 175.025 435.366 175.879 433.183 C 176.767 430.943 177.656 428.701 178.57 426.393 C 179.024 425.245 179.478 424.099 179.946 422.914 C 190.092 397.283 200.494 371.924 213.981 347.839 C 219.014 338.78 223.025 330.286 222.663 319.772 C 222.588 317.579 222.512 315.389 222.434 313.129 C 214.098 313.295 210.455 314.187 204.223 319.887 C 193.001 334.531 184.833 351.478 176.737 367.988 C 165.262 391.342 151.43 412.907 136.311 434.066 C 135.503 435.2 134.695 436.335 133.864 437.501 C 129.844 443.145 125.816 448.781 121.774 454.41 C 119.234 457.972 116.751 461.576 114.323 465.218 C 97.961 462.81 83.105 443.724 72.178 432.234 C 74.826 424.101 78.967 419.086 84.66 412.765 C 110.534 383.025 131.175 348.486 147.02 312.456 C 147.877 310.54 148.733 308.623 149.617 306.65 C 151.238 302.977 152.805 299.282 154.308 295.558 C 158.361 286.368 161.39 281.288 170.883 277.39 C 173.998 276.41 177.133 275.492 180.289 274.649 C 182.677 273.898 185.062 273.142 187.447 272.38 C 189.619 271.73 191.793 271.081 194.032 270.413 C 204.876 267.009 213.559 262.332 222.52 255.323 C 226.099 252.661 226.099 252.661 231.596 250.828 C 231.596 249.619 231.596 248.409 231.596 247.163 C 234.606 244.067 237.67 241.021 240.758 238.001 C 242.155 236.226 243.554 234.449 244.993 232.618 C 254.889 220.714 263.494 214.325 279.238 216.013 Z" fill="#F9F9FA" style=""></path>
  <path d="M 158.3 287.475 C 157.192 294.19 155.321 299.716 152.394 305.848 C 151.152 308.463 151.152 308.463 149.886 311.126 C 148.997 312.959 148.107 314.791 147.192 316.68 C 146.279 318.57 145.365 320.459 144.426 322.404 C 129.682 352.646 111.869 380.049 91.174 406.517 C 88.405 410.067 85.663 413.639 82.957 417.237 C 81.818 418.748 80.68 420.257 79.507 421.812 C 78.525 423.128 77.543 424.445 76.529 425.799 C 75.281 427.171 75.281 427.171 74.011 428.569 C 72.801 428.569 71.592 428.569 70.347 428.569 C 69.741 429.779 69.136 430.987 68.513 432.234 C 61.184 421.927 61.184 421.927 61.184 415.742 C 59.974 415.742 58.765 415.742 57.52 415.742 C 57.52 414.534 57.52 413.325 57.52 412.078 C 56.309 412.078 55.1 412.078 53.853 412.078 C 46.525 404.102 46.525 404.102 46.525 397.419 C 45.316 397.419 44.105 397.419 42.86 397.419 C 42.33 395.946 41.803 394.471 41.257 392.952 C 39.685 388.013 39.685 388.013 35.531 386.424 C 33.01 381.105 31.866 377.701 31.866 371.766 C 35.078 369.158 35.078 369.158 39.574 366.469 C 41.207 365.479 42.84 364.487 44.523 363.465 C 46.28 362.427 48.036 361.385 49.845 360.313 C 53.417 358.149 56.984 355.985 60.553 353.821 C 63.818 351.862 67.08 349.901 70.347 347.944 C 86.43 338.198 101.337 327.206 116.282 315.821 C 124.754 309.376 133.278 303.002 141.809 296.637 C 143.152 295.633 144.497 294.626 145.882 293.589 C 154.198 287.475 154.198 287.475 158.3 287.475 Z" fill="#32328B" style=""></path>
  <path d="M 198.613 32.774 C 202.427 39.053 202.427 39.053 201.783 43.619 C 198.174 53.911 189.47 60.579 180.289 65.757 C 177.194 68.77 174.145 71.83 171.127 74.918 C 168.662 77.112 166.18 79.288 163.683 81.445 C 159.766 84.834 156.008 88.206 152.344 91.868 C 149.03 95.182 138.145 102.991 138.145 104.236 C 134.09 107.749 130.025 111.054 125.776 114.316 C 124.614 115.229 123.452 116.144 122.254 117.085 C 116.722 121.384 105.16 130.478 105.16 131.724 C 99.178 136.754 93.281 140.948 85.349 140.771 C 81.34 139.052 81.34 139.052 75.843 135.388 C 73.29 124.844 76.403 116.071 81.705 107.024 C 82.492 105.765 83.279 104.505 84.088 103.208 C 84.874 101.883 85.663 100.557 86.472 99.194 C 88.396 95.969 90.359 92.769 92.334 89.578 C 93.72 87.475 104.311 77.385 108.826 73.087 C 110.15 71.688 111.472 70.29 112.835 68.85 C 116.156 65.757 130.814 56.009 130.814 54.763 C 142.277 48.575 153.657 43.85 166.081 39.946 C 170.266 38.557 174.046 36.99 177.998 35.065 C 185.418 32.211 190.722 32.358 198.613 32.774 Z" fill="#FCC89A"></path>
</svg>
